<svg width="0" height="0" style="position:absolute" xmlns="http://www.w3.org/2000/svg"><symbol fill="none" viewBox="0 0 17 11" id="arrow-24" xmlns="http://www.w3.org/2000/svg"><path d="M8.886 9.742a.5.5 0 01-.772 0l-6.629-8.07c-.362-.44.18-1.047.66-.736l5.538 3.596a1.5 1.5 0 001.634 0L14.856.936c.48-.311 1.021.295.659.737L8.886 9.742z" fill="currentColor" stroke="currentColor"></path></symbol><symbol fill="none" viewBox="0 0 18 18" id="arrow-new24" xmlns="http://www.w3.org/2000/svg"><path fill-rule="evenodd" clip-rule="evenodd" d="M13.672 4.595H1.583V.525h16.159v16.16h-4.07V4.594z" fill="currentColor"></path><path opacity=".4" fill-rule="evenodd" clip-rule="evenodd" d="M.742 14.884L13.55 2.076l2.877 2.878L3.62 17.76.742 14.884z" fill="currentColor"></path></symbol><symbol viewBox="0 0 18 18" id="bc-home" xmlns="http://www.w3.org/2000/svg"><path d="M9 2.561l-7 5.6V16h5v-4h4v4h5V8.642a1 1 0 00-.375-.781L9 2.561zM9 0l7.874 6.3A3 3 0 0118 8.641V16a2 2 0 01-2 2H2a2 2 0 01-2-2V8.161A2 2 0 01.75 6.6L9 0z"></path></symbol><symbol fill="none" viewBox="0 0 65 78" id="box-cta-icon" xmlns="http://www.w3.org/2000/svg"><g filter="url(#adfilter0_f_2585_1373)"><rect x="59" y="72" width="53" height="66" rx="3" transform="rotate(-180 59 72)" stroke="url(#adpaint0_linear_2585_1373)" stroke-width="4"></rect></g><path stroke="#fff" stroke-width=".5" d="M58.75 71.75H6.25V6.25h52.5z"></path><path d="M38.26 39L25.588 51.047 31.72 39l-6.133-12.048L38.26 39z" fill="#fff"></path><defs><linearGradient id="adpaint0_linear_2585_1373" x1="107.967" y1="138" x2="51.633" y2="116.553" gradientUnits="userSpaceOnUse"><stop stop-color="#00D1FF"></stop><stop offset=".45" stop-color="#4868F0"></stop><stop offset="1" stop-color="#A24EEE"></stop></linearGradient><filter id="adfilter0_f_2585_1373" x="0" y="0" width="65" height="78" filterUnits="userSpaceOnUse" color-interpolation-filters="sRGB"><feFlood flood-opacity="0" result="BackgroundImageFix"></feFlood><feBlend in="SourceGraphic" in2="BackgroundImageFix" result="shape"></feBlend><feGaussianBlur stdDeviation="2" result="effect1_foregroundBlur_2585_1373"></feGaussianBlur></filter></defs></symbol><symbol fill="none" viewBox="0 0 13 22" id="btn-arrow-gradient" xmlns="http://www.w3.org/2000/svg"><path d="M13 11L0 21.5 3.982 11 0 .5 13 11z" fill="url(#aepaint0_linear_3003_46966)"></path><defs><linearGradient id="aepaint0_linear_3003_46966" x1="13" y1=".844" x2="6.765" y2="22.976" gradientUnits="userSpaceOnUse"><stop stop-color="#04E4FF"></stop><stop offset="1" stop-color="#009CFF"></stop></linearGradient></defs></symbol><symbol fill="none" viewBox="0 0 22 16" id="check-mark" xmlns="http://www.w3.org/2000/svg"><path opacity=".6" fill-rule="evenodd" clip-rule="evenodd" d="M11.426 12.807L2.878 4.26 0 7.137l8.548 8.548 2.878-2.878z" fill="#04E4FF"></path><path fill-rule="evenodd" clip-rule="evenodd" d="M18.485 0L5.678 12.807l2.877 2.878L21.363 2.878 18.485 0z" fill="#04E4FF"></path></symbol><symbol fill="none" viewBox="0 0 20 50" id="chev-arrow" xmlns="http://www.w3.org/2000/svg"><path d="M0 25.023h8.417S17.648 4.93 19.006 1.402c.19-.495-.03-1.167-.815-1.358-.784-.19-1.357.272-1.9.815C15.476 1.673 0 25.023 0 25.023z" fill="#4FBAEE"></path><path d="M0 24.979h8.417s9.231 20.09 10.589 23.62c.19.495-.03 1.167-.815 1.358-.784.19-1.357-.272-1.9-.815C15.476 48.328 0 24.978 0 24.978z" fill="#5AA6C8"></path></symbol><symbol fill="none" viewBox="0 0 20 50" id="chev-arrow1" xmlns="http://www.w3.org/2000/svg"><path d="M19.14 25.023h-8.417S1.493 4.93.135 1.402C-.055.907.165.235.949.044c.785-.19 1.358.272 1.9.815.815.814 16.29 24.164 16.29 24.164z" fill="#4FBAEE"></path><path d="M19.14 24.979h-8.417S1.493 45.069.135 48.599c-.19.495.03 1.167.814 1.358.785.19 1.358-.272 1.9-.815.815-.814 16.29-24.164 16.29-24.164z" fill="#5AA6C8"></path></symbol><symbol fill="none" viewBox="0 0 14 14" id="close-thin" xmlns="http://www.w3.org/2000/svg"><path stroke="currentColor" stroke-width="1.5" d="M13.36.866l-12.5 12.5M.806.866l12.5 12.5"></path></symbol><symbol fill="none" viewBox="0 0 32 28" id="download-2" xmlns="http://www.w3.org/2000/svg"><path d="M31.204 14.16c0-1.274-.229-2.515-.686-3.69a.45.45 0 00-.555-.262.45.45 0 00-.261.555c.424 1.078.62 2.22.62 3.364 0 5.191-4.244 9.436-9.436 9.436s-9.437-4.244-9.437-9.436c0-5.16 4.245-9.404 9.437-9.404.392 0 .816.032 1.208.065h.065a9.32 9.32 0 015.42 2.677.454.454 0 00.621 0 .454.454 0 000-.62c-1.535-1.535-3.461-2.547-5.584-2.873V3.09c0-1.078-.783-1.96-1.828-2.09H3.122C1.947 1.033 1 1.98 1 3.123 1 2.437 3.122 1 3.122 1 1.947 1 1 3.123 1 3.123V22.747s0 .033.033.033c0 0 0 .032.032.032l.033.033 1.6 1.6.947.947 1.796 1.796.032.033s.033 0 .033.032c0 0 .033 0 .033.033 0 0 .032 0 .032.032h14.891a2.118 2.118 0 002.122-2.122v-.882c4.898-.783 8.62-5.028 8.62-10.155zM5.31 25.816L2.535 23.04h2.71a.07.07 0 01.065.065v2.71zm16.425-.588a1.24 1.24 0 01-1.241 1.24H6.159v-3.363a.948.948 0 00-.947-.947h-3.33V3.123c0-.686.555-1.241 1.24-1.241h17.372c.686 0 1.24.555 1.24 1.24v.752c-.293-.033-.554-.033-.848-.033-5.682 0-10.319 4.637-10.319 10.318 0 5.682 4.637 10.319 10.319 10.319.294 0 .588 0 .849-.033v.784z" fill="currentColor"></path><path d="M3.122 1h17.666a2.087 2.087 0 011.828 2.09v.882c2.123.326 4.05 1.338 5.584 2.873a.454.454 0 010 .62.454.454 0 01-.62 0 9.32 9.32 0 00-5.42-2.677h-.066a14.974 14.974 0 00-1.208-.065c-5.192 0-9.437 4.244-9.437 9.404 0 5.191 4.245 9.436 9.437 9.436 5.192 0 9.437-4.244 9.437-9.436a9.162 9.162 0 00-.621-3.364.45.45 0 01.261-.555.45.45 0 01.555.261c.457 1.176.686 2.417.686 3.69 0 5.127-3.722 9.372-8.62 10.155v.882a2.118 2.118 0 01-2.123 2.122H5.571c0-.032-.032-.032-.032-.032 0-.033-.033-.033-.033-.033 0-.032-.033-.032-.033-.032l-.032-.033-1.796-1.796-.947-.947-1.6-1.6-.033-.033c-.032 0-.032-.032-.032-.032C1 22.78 1 22.747 1 22.747V3.123M3.122 1C1.947 1.033 1 1.98 1 3.123M3.122 1S1 2.437 1 3.123M3.122 1h16.752M3.122 1C1.947 1 1 3.123 1 3.123m4.31 22.694L2.535 23.04h2.71a.07.07 0 01.065.065v2.71zm16.425-.588a1.24 1.24 0 01-1.241 1.24H6.159v-3.363a.948.948 0 00-.947-.947h-3.33V3.123c0-.686.555-1.241 1.24-1.241h17.372c.686 0 1.24.555 1.24 1.24v.752c-.293-.033-.554-.033-.848-.033-5.682 0-10.319 4.637-10.319 10.318 0 5.682 4.637 10.319 10.319 10.319.294 0 .588 0 .849-.033v.784z" stroke="currentColor" stroke-width=".5"></path><path d="M20.892 15.893a.5.5 0 00.708 0l3.182-3.182a.5.5 0 10-.707-.707l-2.829 2.828-2.828-2.829a.5.5 0 10-.707.708l3.181 3.182zm-.146-6.966v6.612h1V8.927h-1z" fill="currentColor"></path><path stroke="currentColor" d="M16.838 18.345h8.816"></path></symbol><symbol fill="none" viewBox="44.1 104.9 1825.9 249.4" id="ds-logo" xmlns="http://www.w3.org/2000/svg"><path d="M95 306h28c25 0 45-6 56-18 12-12 17-30 17-56s-6-44-18-56c-12-13-30-18-55-18H95v148zm-48 42l-1-231 62-1c25 0 44 2 58 5a100 100 0 0169 56c8 16 11 35 11 55 1 20-3 38-11 55-7 15-17 29-31 39-11 8-22 13-35 17-13 3-32 5-56 5H47zm242-232h48l1 231h-49V116zm200 109l119-1 1 4v8c0 35-10 62-29 84a99 99 0 01-77 32 119 119 0 01-122-121c0-35 11-64 34-87s52-34 88-34a114 114 0 0193 47l-33 25c-8-11-17-18-26-23-9-4-20-7-32-7-23 0-41 8-54 22a81 81 0 00-21 57c0 24 7 42 21 56 13 15 31 22 53 22 16 0 29-4 39-12s15-18 15-30v-3h-35l-34-39zm159-110h49l1 231h-49l-1-231zm187 41l1 190h-49l-1-190-56 1v-42l182-1-16 42h-61zm186-42h-55l-87 231h53l61-194c1 8 32 105 32 105l-43 1 73 87h56l-90-230zm114 231V113h48l1 189h55l35 42-139 1z" fill="#fff" fill-opacity=".1"></path><path d="M95 306v1h28c26 0 45-6 56-18 12-13 18-31 18-57s-6-45-18-57-31-18-56-18H94v1l1 148zm140-19a103 103 0 01-66 56c-13 3-32 4-56 4H47V117h61c25 0 44 1 58 5a100 100 0 0169 56c7 15 11 34 11 54s-3 38-11 55zm319-165c15 8 29 20 41 35l-32 24c-8-10-17-18-26-22s-20-7-32-7c-23 0-41 7-55 22a81 81 0 00-20 57c0 24 7 42 21 57 13 14 31 21 53 21 16 0 29-3 39-11s15-19 15-31v-3h-35l-33-39h118l1 4v7c0 34-10 62-30 84a99 99 0 01-76 32c-35 0-64-11-87-34s-35-52-35-87 11-64 34-87c24-22 52-34 88-34 18 0 36 4 51 12zm281 34h-1l1 189h-48V156h-57v-41l181-1-15 42h-61zm275 187l-54 1-73-87h42v-2l-1-3-4-11a13445 13445 0 01-27-90h-1l-3 10a2897 2897 0 01-28 90 39351 39351 0 01-27 86l-2 6-1 2h-51l86-231h55l89 229zm129-40l34 41h-137l-1-230h48v189h56zM289 116h48v231h-47l-1-231zm360-1h48v230l-48 1V115z" stroke="#fff" stroke-opacity=".2"></path><path d="M1474 112h49l1 230h-49l-1-230zm207 188l-56 1-1-189h-48v231l140-1-35-42zm102-84l82-105h-57l-76 105V111l-50 1 1 125 49 58v-74l78 120h58l-85-125zm-363 23c-10-11-24-21-44-30l-10-5c-23-10-36-21-36-33 0-8 3-14 10-19 5-5 13-7 23-8 8 0 15 2 20 5 6 4 11 9 14 15l29-28c-8-10-17-17-27-22s-22-7-36-7c-24 0-43 6-58 19a58 58 0 00-23 46c0 15 4 26 12 36s22 20 42 30l17 9c22 10 33 21 33 32 0 10-4 17-10 22-6 6-15 9-27 9-10 0-19-2-26-7-8-5-13-11-16-20l-26 1 55 64 18 2c24 0 44-7 59-20s22-30 22-52c-1-14-6-27-15-39z" fill="#fff" fill-opacity=".1"></path><path d="M1625 301h56l34 41h-138l-1-230h48l1 189zm158-85v1l84 123-57 1-77-121-1-1v75l-49-57V112h48l1 104v1l1-1 76-104h55l-81 104zm-407-7c19 10 34 20 43 31s14 24 15 38c0 22-7 39-21 52a87 87 0 01-59 19l-18-1-54-64h24c3 8 9 14 17 19 7 5 16 7 26 7 12 0 21-3 27-8 7-6 10-13 10-23 0-6-3-11-8-17l-25-16-17-8c-20-10-34-21-42-30-8-10-11-21-11-36 0-19 7-34 22-46s34-19 58-19c14 0 26 2 36 7 9 5 18 12 26 22l-28 27a35 35 0 00-34-19c-10 0-18 2-24 7s-9 12-9 20c0 6 3 12 9 18 6 5 15 11 27 16l6 2v1l4 1zm99-96h48v229h-47l-1-229z" stroke="#fff" stroke-opacity=".2"></path></symbol><symbol fill="none" viewBox="0 0 8 12" id="lib-icon-arrow-right" xmlns="http://www.w3.org/2000/svg"><path d="M1 1l5 5-5 5" stroke="currentColor" stroke-width="2"></path></symbol><symbol fill="none" viewBox="0 0 39 79" id="lib-icon-arrow-right-big" xmlns="http://www.w3.org/2000/svg"><path d="M39 39.5L0 79l18.874-39.5L0 0l39 39.5z" fill="currentColor"></path></symbol><symbol fill="none" viewBox="0 0 14 22" id="lib-icon-arrow3" xmlns="http://www.w3.org/2000/svg"><path d="M13.5 11L.5 21.5 4.482 11 .5.5l13 10.5z" fill="currentColor"></path></symbol><symbol fill="none" viewBox="0 0 22 21" id="lib-icon-close-video" xmlns="http://www.w3.org/2000/svg"><path d="M20.191 1.308L1.807 19.692M1.807 1.308l18.385 18.384" stroke="#fff" stroke-width="3"></path></symbol><symbol fill="none" viewBox="0 0 19 14" id="lib-icon-email" xmlns="http://www.w3.org/2000/svg"><path d="M17.774 13.638H.373c-.093 0-.28-.093-.28-.28V.704c0-.093.094-.28.28-.28h17.401c.093 0 .28.094.28.28v12.749c-.093.093-.186.186-.28.186zM.56 13.172h16.936V.89H.56v12.283z" fill="currentColor"></path><path d="M17.774 13.732H.372A.4.4 0 010 13.36V.704A.4.4 0 01.372.332h17.402a.4.4 0 01.372.372v12.749c-.093.093-.186.279-.372.279zM.372.518a.2.2 0 00-.186.186v12.749a.2.2 0 00.186.186h17.402a.2.2 0 00.186-.186V.704a.2.2 0 00-.186-.186H.372zm17.122 12.749H.558c-.093 0-.093 0-.093-.093V.89c0-.093 0-.093.093-.093h16.936c.093 0 .093 0 .093.093l-.093 12.377c.093-.093.093 0 0 0zM.651 13.08h16.75V.983H.651v12.098z" fill="currentColor"></path><path d="M9.027 8.987c-.093 0-.093 0-.186-.093L.093.891a.283.283 0 010-.372.283.283 0 01.372 0l8.562 7.91 8.56-7.91a.283.283 0 01.373 0 .283.283 0 010 .372L9.213 8.894c-.093.093-.093.093-.186.093z" fill="currentColor"></path><path d="M9.026 9.08c-.093 0-.186 0-.186-.094L.093.983C0 .89 0 .797 0 .704 0 .611 0 .518.093.425.186.332.279.332.279.332c.093 0 .186 0 .28.093l8.467 7.817L17.494.425c.094-.093.187-.093.28-.093.093 0 .186 0 .279.093.093.093.093.186.093.28 0 .092 0 .185-.093.278L9.306 8.986c-.093 0-.186.093-.28.093zM.372.517C.28.518.28.518.28.611v.093s0 .093.093.093L9.12 8.8c.093.093.186.093.186 0L18.053.797l.093-.093V.611l-.093-.093h-.093l-8.561 7.91h-.093L.744.518H.372z" fill="currentColor"></path></symbol><symbol fill="none" viewBox="0 0 60 60" id="lib-icon-mute" xmlns="http://www.w3.org/2000/svg"><path d="M35 51.813v-3.876c4.042-1.166 7.344-3.406 9.906-6.718 2.563-3.313 3.844-7.073 3.844-11.282 0-4.208-1.27-7.979-3.813-11.312-2.541-3.333-5.854-5.563-9.937-6.688V8.063c5.167 1.166 9.375 3.78 12.625 7.843 3.25 4.063 4.875 8.74 4.875 14.031 0 5.292-1.625 9.97-4.875 14.032-3.25 4.062-7.458 6.677-12.625 7.843zM7.5 37.5v-15h10L30 10v40L17.5 37.5h-10zm26.25 3V19.437c2.292.709 4.115 2.042 5.469 4 1.354 1.959 2.031 4.146 2.031 6.563 0 2.375-.688 4.542-2.063 6.5-1.374 1.958-3.187 3.292-5.437 4zm-7.5-21l-7.063 6.75H11.25v7.5h7.938l7.062 6.813V19.5z" fill="#fff"></path></symbol><symbol fill="none" viewBox="0 0 60 60" id="lib-icon-pause" xmlns="http://www.w3.org/2000/svg"><path d="M23.125 40h3.75V20h-3.75v20zm10 0h3.75V20h-3.75v20zM30 55c-3.417 0-6.646-.656-9.688-1.969-3.041-1.312-5.697-3.104-7.968-5.375-2.271-2.27-4.063-4.927-5.375-7.968C5.656 36.645 5 33.416 5 30c0-3.458.656-6.708 1.969-9.75 1.312-3.042 3.104-5.688 5.375-7.938 2.27-2.25 4.927-4.03 7.969-5.343C23.354 5.656 26.582 5 30 5c3.458 0 6.708.656 9.75 1.969 3.042 1.312 5.688 3.093 7.938 5.343s4.03 4.896 5.343 7.938C54.344 23.292 55 26.542 55 30c0 3.417-.656 6.646-1.969 9.688-1.312 3.041-3.093 5.697-5.343 7.968s-4.896 4.063-7.938 5.375C36.708 54.344 33.458 55 30 55zm0-3.75c5.917 0 10.938-2.073 15.063-6.219C49.187 40.885 51.25 35.875 51.25 30c0-5.917-2.063-10.938-6.188-15.063C40.938 10.814 35.918 8.75 30 8.75c-5.875 0-10.885 2.063-15.031 6.188C10.823 19.061 8.75 24.082 8.75 30c0 5.875 2.073 10.885 6.219 15.031C19.115 49.177 24.125 51.25 30 51.25z" fill="#fff"></path></symbol><symbol fill="none" viewBox="0 0 127 127" id="lib-icon-play" xmlns="http://www.w3.org/2000/svg"><g filter="url(#asa)"><circle cx="63.5" cy="63.5" r="49.5" stroke="url(#asb)" stroke-width="6.9"></circle><path d="M86 63L49 84V41l37 22z" stroke="url(#asc)" stroke-width="5.5"></path></g><circle cx="63.5" cy="63.5" r="47.8" stroke="#fff" stroke-width="3.5"></circle><path d="M51 45l30 18-30 17V45z" stroke="#fff" stroke-width="4.3"></path><defs><linearGradient id="asb" x1="113" y1="99.7" x2="13.6" y2="99.3" gradientUnits="userSpaceOnUse"><stop stop-color="#009CFF"></stop><stop offset=".4" stop-color="#4868F0"></stop><stop offset="1" stop-color="#8F35E1"></stop></linearGradient><linearGradient id="asc" x1="53.6" y1="84" x2="53.8" y2="41.3" gradientUnits="userSpaceOnUse"><stop stop-color="#009CFF"></stop><stop offset=".4" stop-color="#4868F0"></stop><stop offset="1" stop-color="#8F35E1"></stop></linearGradient><filter id="asa" x=".9" y=".9" width="125.1" height="125.1" filterUnits="userSpaceOnUse" color-interpolation-filters="sRGB"><feFlood flood-opacity="0" result="BackgroundImageFix"></feFlood><feBlend in="SourceGraphic" in2="BackgroundImageFix" result="shape"></feBlend><feGaussianBlur stdDeviation="4.8" result="effect1_foregroundBlur_5760_69245"></feGaussianBlur></filter></defs></symbol><symbol fill="none" viewBox="0 0 60 60" id="lib-icon-play2" xmlns="http://www.w3.org/2000/svg"><path d="M23.938 40.625L40.624 30 23.937 19.375v21.25zM30 55c-3.417 0-6.646-.656-9.688-1.969-3.041-1.312-5.697-3.104-7.968-5.375-2.271-2.27-4.063-4.927-5.375-7.968C5.656 36.645 5 33.416 5 30c0-3.458.656-6.708 1.969-9.75 1.312-3.042 3.104-5.688 5.375-7.938 2.27-2.25 4.927-4.03 7.969-5.343C23.354 5.656 26.582 5 30 5c3.458 0 6.708.656 9.75 1.969 3.042 1.312 5.688 3.093 7.938 5.343s4.03 4.896 5.343 7.938C54.344 23.292 55 26.542 55 30c0 3.417-.656 6.646-1.969 9.688-1.312 3.041-3.093 5.697-5.343 7.968s-4.896 4.063-7.938 5.375C36.708 54.344 33.458 55 30 55zm0-3.75c5.917 0 10.938-2.073 15.063-6.219C49.187 40.885 51.25 35.875 51.25 30c0-5.917-2.063-10.938-6.188-15.063C40.938 10.814 35.918 8.75 30 8.75c-5.875 0-10.885 2.063-15.031 6.188C10.823 19.061 8.75 24.082 8.75 30c0 5.875 2.073 10.885 6.219 15.031C19.115 49.177 24.125 51.25 30 51.25z" fill="#fff"></path></symbol><symbol fill="none" viewBox="0 0 50 50" id="lib-icon-search" xmlns="http://www.w3.org/2000/svg"><circle cx="20.506" cy="20.506" r="13.5" transform="rotate(-45 20.506 20.506)" stroke="currentColor" stroke-width="2"></circle><path stroke="currentColor" stroke-width="2" d="M30.406 29.698l9.193 9.193"></path></symbol><symbol fill="none" viewBox="0 0 60 60" id="lib-icon-settings" xmlns="http://www.w3.org/2000/svg"><path d="M24.25 55L23 47.125c-.792-.292-1.625-.688-2.5-1.188s-1.646-1.02-2.313-1.562l-7.375 3.375L5 37.5l6.75-4.938a7.44 7.44 0 01-.156-1.28c-.021-.48-.031-.907-.031-1.282s.01-.802.03-1.281c.022-.48.074-.906.157-1.281L5 22.5l5.813-10.25 7.374 3.375c.667-.542 1.438-1.063 2.313-1.563s1.708-.874 2.5-1.124L24.25 5h11.5L37 12.875c.792.292 1.635.677 2.531 1.156.896.48 1.656 1.01 2.281 1.594l7.376-3.375L55 22.5l-6.75 4.813c.083.416.135.864.156 1.343a28.855 28.855 0 010 2.656c-.02.459-.073.896-.156 1.313L55 37.5l-5.813 10.25-7.374-3.375a20.739 20.739 0 01-2.282 1.594c-.854.52-1.698.906-2.531 1.156L35.75 55h-11.5zM30 38.125c2.25 0 4.167-.792 5.75-2.375 1.583-1.583 2.375-3.5 2.375-5.75s-.792-4.167-2.375-5.75c-1.583-1.583-3.5-2.375-5.75-2.375s-4.167.792-5.75 2.375c-1.583 1.583-2.375 3.5-2.375 5.75s.792 4.167 2.375 5.75c1.583 1.583 3.5 2.375 5.75 2.375zm0-3.75c-1.208 0-2.24-.427-3.094-1.281-.854-.854-1.281-1.886-1.281-3.094s.427-2.24 1.281-3.094c.854-.854 1.886-1.281 3.094-1.281s2.24.427 3.094 1.281c.854.854 1.281 1.886 1.281 3.094s-.427 2.24-1.281 3.094c-.854.854-1.886 1.281-3.094 1.281zM27.25 51.25h5.5l.875-7a14.739 14.739 0 003.906-1.563 16.017 16.017 0 003.344-2.562L47.5 43l2.5-4.5-5.875-4.313a26.388 26.388 0 00.406-2.093A13.954 13.954 0 0044.688 30c0-.708-.042-1.406-.126-2.094a12.933 12.933 0 00-.437-2.094L50 21.5 47.5 17l-6.625 2.875a13.934 13.934 0 00-3.25-2.719 10.542 10.542 0 00-4-1.406l-.875-7h-5.5l-.875 7c-1.417.292-2.74.792-3.969 1.5a13.784 13.784 0 00-3.281 2.625L12.5 17 10 21.5l5.875 4.313a26.388 26.388 0 00-.406 2.093A13.954 13.954 0 0015.313 30c0 .708.052 1.406.156 2.094a26.388 26.388 0 00.406 2.094L10 38.5l2.5 4.5 6.625-2.875c1 1 2.115 1.854 3.344 2.563a14.739 14.739 0 003.906 1.562l.875 7z" fill="#fff"></path></symbol><symbol fill="none" viewBox="0 0 60 60" id="lib-icon-unmute" xmlns="http://www.w3.org/2000/svg"><path d="M50.813 56.5l-8.25-8.25a21.69 21.69 0 01-3.782 2.156 22.795 22.795 0 01-4.218 1.407v-3.876a36.402 36.402 0 002.78-.968 11.19 11.19 0 002.532-1.407L29.562 35.188V50l-12.5-12.5h-10v-15h9.75L3.063 8.75 5.75 6.062 53.5 53.75l-2.688 2.75zM48.563 42l-2.688-2.688a16.935 16.935 0 001.844-4.5c.396-1.583.593-3.208.593-4.874 0-4.292-1.25-8.136-3.75-11.532-2.5-3.396-5.833-5.552-10-6.468V8.062c5.167 1.167 9.376 3.782 12.626 7.844 3.25 4.063 4.874 8.74 4.874 14.031 0 2.125-.291 4.209-.874 6.25A22.073 22.073 0 0148.562 42zm-8.376-8.375L34.563 28v-8.125c1.958.917 3.49 2.292 4.593 4.125 1.104 1.833 1.657 3.833 1.657 6a10.681 10.681 0 01-.625 3.625zM29.563 23l-6.5-6.5 6.5-6.5v13zm-3.75 17.875V31.5l-5.25-5.25h-9.75v7.5h7.874l7.125 7.125z" fill="#fff"></path></symbol><symbol fill="none" viewBox="0 0 15 16" id="link-out" xmlns="http://www.w3.org/2000/svg"><g fill="#fff" clip-path="url(#axclip0_2259_12008)"><path fill-rule="evenodd" clip-rule="evenodd" d="M8.134 7.59l.566-.564 1.347-1.344 1.629-1.624.646-.645V4.507c0 .219.096.448.25.603a.875.875 0 00.605.25c.22-.01.45-.083.603-.25a.88.88 0 00.251-.603V1.423a.861.861 0 00-.248-.672C13.621.6 13.409.49 13.18.5h-3.176a.881.881 0 00-.604.25.87.87 0 00-.25.603c.01.22.082.448.25.602.167.153.372.25.604.25h1.113l-.454.452-1.629 1.625-1.413 1.41-.228.226c-.153.152-.306.303-.457.457l-.01.01a.876.876 0 00-.25.602c0 .209.092.459.25.602.163.15.376.26.604.25a.888.888 0 00.604-.25zm3.187.627v3.051c0 .127.001.254-.008.38a2.226 2.226 0 01-.092.337 2.23 2.23 0 01-.177.302c-.07.082-.147.159-.23.23a2.227 2.227 0 01-.302.177c-.112.04-.227.07-.344.092a5.974 5.974 0 01-.562.01l-.22-.003H3.032c-.058 0-.114-.002-.17-.006a2.263 2.263 0 01-.344-.093 2.25 2.25 0 01-.303-.177 2.224 2.224 0 01-.23-.228 2.209 2.209 0 01-.178-.302 2.225 2.225 0 01-.093-.343 5.92 5.92 0 01-.01-.56l.003-.22V5.3v-.259-.515c0-.057.002-.114.007-.17.022-.117.053-.23.093-.342.05-.106.11-.207.177-.303a2.23 2.23 0 01.23-.23 2.22 2.22 0 01.302-.177c.11-.039.224-.07.34-.091.115-.009.23-.009.347-.008H6.297c.219 0 .448-.095.603-.25a.87.87 0 00.251-.603c-.01-.22-.083-.448-.25-.602a.888.888 0 00-.604-.25H3.045c-.494 0-.96.121-1.402.338a3.037 3.037 0 00-1.19 1.097 3.028 3.028 0 00-.452 1.59V11.473a3.06 3.06 0 00.404 1.511A3.068 3.068 0 003.034 14.5h6.814c.628 0 1.252-.125 1.783-.477.452-.298.85-.709 1.081-1.203.117-.252.22-.509.262-.784a3.75 3.75 0 00.056-.578V8.218a.877.877 0 00-.25-.602.875.875 0 00-.605-.25c-.22.01-.45.082-.604.25a.874.874 0 00-.25.6z"></path><path d="M8.7 7.026l.176.177-.176-.177zm-.566.564l-.176-.177h-.001l.177.177zm1.913-1.908l-.177-.177.177.177zm1.629-1.624l.176.177-.176-.177zm.646-.645h.25v-.602l-.426.425.176.177zm.25 1.697l.177-.177-.176.177zm.605.25l.01.25-.01-.25zm.603-.25l-.183-.17.183.17zm.251-3.687l-.249-.023-.001.011v.012h.25zM13.783.75l-.169.184.002.001.168-.185zM13.18.5l-.011-.25.01.25zm-.01 0l-.003.25h.016l-.013-.25zm-.004 0l.003-.25h-.003v.25zM9.4.751l.177.177L9.4.751zm-.25.603l-.25.01.25-.01zm.25.602l.17-.184h-.001l-.169.184zm1.717.25l.177.177.428-.427h-.605v.25zm-.454.452l-.176-.177.176.177zM9.034 4.283l.177.177-.177-.177zm-1.413 1.41l-.176-.178.176.177zm-.228.226l-.176-.178-.001.001.177.177zm0 0l.176.178v-.001l-.176-.177zm-.457.457l.177.177.002-.003-.179-.174zm-.01.01l-.176-.177.177.177zm0 1.204l.17-.184-.001-.001-.168.185zm.604.25l.011.25-.01-.25zm3.79 3.337h-.25.25zm.001.091h-.25v.001h.25zm-.008.38l.245.047.003-.014.001-.015-.25-.018zm-.092.337l.225.109.006-.012.005-.013-.236-.085zm-.177.302l.19.164.008-.01.007-.011-.205-.143zm-.23.23l.143.205.011-.008.01-.008-.163-.19zm-.302.177l.084.235.013-.005.012-.005-.109-.225zm-.344.092l.02.25.013-.002.013-.002-.046-.246zm-.562.01l.004-.25h-.004v.25zm0 0l-.004.25h.004v-.25zm-6.055-.002v-.25.25zm-.002 0v.25-.25zm-.516 0v-.25.25zm-.17-.007l-.046.245.013.003h.013l.02-.248zm-.344-.093l-.109.225.012.006.013.005.084-.236zm-.303-.177l-.163.19.01.008.01.008.143-.206zm-.23-.228l-.205.143.008.01.008.01.189-.163zm-.178-.302l-.235.084.004.013.006.012.225-.11zm-.093-.343l-.249.02.001.013.002.013.246-.046zm-.01-.56l-.25-.005.25.004zm.003-6.042h-.25.25zm0 0h.25-.25zm0-.515l.25.001v-.001h-.25zm.007-.17l-.246-.046-.002.013-.001.014.249.02zm.093-.342l-.225-.11-.006.013-.005.012.236.085zm.177-.303l-.19-.164-.008.01-.007.011.205.143zm.23-.23l-.143-.204-.011.007-.01.009.163.189zm.302-.177l-.084-.235-.013.005-.012.005.109.225zm.34-.091l-.019-.25-.014.001-.014.003.046.246zm.347-.008v.25-.25zm.052 0v.25-.25zm3.644-.25l.177.177-.177-.177zm.251-.603l.25-.01-.25.01zm-.25-.602l-.17.184.17-.184zm-5.258.088l-.11-.224.11.224zm-.674.472l-.167-.186.167.186zm-.516.625l.212.134-.212-.134zm-.452 1.59l.25.001L0 4.525zm0 .397h-.25H0zm0 0h-.25H0zm0 6.55h-.25v.002l.25-.001zm.404 1.512l.217-.125-.217.125zM3.034 14.5l.002-.25h-.001l-.001.25zm.441 0l.001.25v-.25zm8.156-.477l-.138-.209.138.209zm1.081-1.203l.227.106-.227-.106zm.262-.784l-.247-.039.247.039zm-.195-4.419l.177-.177-.177.177zm-.604-.25l-.01-.25h-.001l.011.25zm-.604.25l.183.17h.002l-.185-.17zm-3.048-.767l-.565.564.353.354.565-.564-.353-.354zM9.87 5.505L8.523 6.85l.353.354 1.347-1.344-.353-.354zm1.63-1.624L9.87 5.505l.353.354 1.63-1.624-.354-.354zm.646-.645l-.647.645.353.354.647-.645-.353-.354zm.426.884v-.707h-.5v.707h.5zm0 .387V4.12h-.5v.387h.5zm.177.426a.627.627 0 01-.177-.426h-.5c0 .286.122.578.324.78l.353-.354zm.418.177a.628.628 0 01-.418-.177l-.353.354c.19.188.498.334.79.322l-.02-.5zm.43-.17c-.095.103-.25.162-.432.17l.023.5c.26-.012.563-.099.777-.331l-.369-.338zm.184-.433a.63.63 0 01-.184.433l.367.34a1.13 1.13 0 00.317-.773h-.5zm0-1.066v1.066h.5V3.441h-.5zm0-1.7v1.7h.5v-1.7h-.5zm0-.318v.319h.5v-.32h-.5zm.003-.07c0 .016 0 .031-.002.047l.498.045a1 1 0 00.004-.092h-.5zm-.168-.417a.614.614 0 01.168.417h.5a1.11 1.11 0 00-.332-.787l-.336.37zM13.19.751c.14-.006.291.062.423.184l.339-.368c-.193-.177-.468-.33-.784-.316l.022.5zm-.008 0h.008l-.022-.5h-.012l.026.5zm-.02 0h.004l.005-.5h-.003l-.006.5zm-1.067 0h1.07v-.5h-1.07v.5zm-1.703 0h1.703v-.5h-1.703v.5zm-.389 0h.389v-.5h-.389v.5zm-.427.177a.631.631 0 01.427-.177v-.5a1.13 1.13 0 00-.78.323l.353.354zm-.177.415a.623.623 0 01.177-.415L9.224.574c-.19.19-.336.497-.324.79l.5-.02zm.169.428c-.103-.094-.161-.249-.17-.429l-.499.023c.012.26.098.562.332.775l.337-.369zm.435.185a.636.636 0 01-.434-.184l-.339.368c.204.187.467.316.773.316v-.5zm1.07 0h-1.07v.5h1.07v-.5zm.043 0h-.043v.5h.043v-.5zm-.277.88l.454-.453-.353-.354-.454.452.353.354zM9.21 4.46l1.63-1.625-.353-.354-1.63 1.625.354.354zM7.799 5.87l1.413-1.41-.353-.354-1.413 1.41.353.353zm-.23.227c.077-.076.154-.151.23-.228l-.353-.354-.228.226.352.356zm.002-.001l-.354-.354.354.354zm-.455.454c.149-.151.3-.301.454-.453l-.352-.355c-.153.15-.307.304-.46.459l.358.35zm-.012.013l.01-.01-.353-.354-.01.01.353.354zm-.177.425c0-.152.069-.317.177-.425l-.353-.354a1.126 1.126 0 00-.324.779h.5zm.169.417a.614.614 0 01-.17-.417h-.5c0 .266.114.588.334.787l.336-.37zm.424.185c-.14.006-.291-.062-.423-.184l-.339.368c.193.177.468.33.784.316l-.022-.5zm.438-.176a.638.638 0 01-.438.176l.022.5c.276-.012.555-.107.77-.324l-.354-.352zm3.614 1.982v-1.18h-.5v1.18h.5zm0 1.781V9.396h-.5v1.781h.5zm0 .09v-.09h-.5v.092l.5-.002zm-.009.4c.01-.138.01-.275.009-.4l-.5.002c0 .129.001.246-.007.36l.498.037zm-.105.402c.043-.122.077-.247.101-.374l-.49-.094c-.02.102-.047.202-.082.3l.47.168zm-.208.361c.075-.107.14-.22.197-.336l-.45-.219a1.979 1.979 0 01-.157.269l.41.286zm-.271.276c.091-.08.177-.164.255-.255l-.378-.328a1.98 1.98 0 01-.204.204l.327.379zm-.357.213c.117-.057.23-.123.336-.197l-.285-.411c-.086.06-.176.113-.269.157l.218.45zm-.407.113c.13-.024.258-.058.382-.103l-.168-.47c-.1.035-.201.062-.306.082l.092.491zm-.611.014c.184.002.386.006.585-.01l-.04-.499a5.757 5.757 0 01-.538.009l-.007.5zm.003 0v-.5.5zm0 0v-.5.5zm-.22-.003l.216.003.008-.5a15.07 15.07 0 00-.225-.003v.5zm-1.704 0h1.703v-.5H7.682v.5zm-2.09 0h2.09v-.5h-2.09v.5zm-1.783 0h1.783v-.5H3.809v.5zm-.258 0h.258v-.5H3.55l.001.5zm-.001 0h.001v-.5h-.002v.5zm-.519 0h.519l-.001-.5h-.515l-.003.5zm-.188-.007c.063.005.126.007.19.007v-.5c-.05 0-.1-.002-.151-.006l-.039.499zm-.408-.106a2.5 2.5 0 00.382.102l.091-.491a2.002 2.002 0 01-.305-.082l-.168.47zm-.362-.207c.107.074.22.14.337.196l.218-.45a1.99 1.99 0 01-.27-.157l-.285.41zm-.276-.27c.079.09.164.175.256.254l.326-.379a1.98 1.98 0 01-.204-.203l-.378.327zm-.214-.357c.057.117.124.23.198.336l.41-.287a1.954 1.954 0 01-.158-.267l-.45.218zm-.114-.406c.025.13.06.257.104.381l.47-.169a1.976 1.976 0 01-.082-.304l-.492.092zm-.013-.61c-.003.184-.006.385.01.584l.498-.04a5.696 5.696 0 01-.008-.537l-.5-.008zm.002-.217l-.002.216.5.008.002-.224h-.5zm0-1.699v1.7h.5v-1.7h-.5zm0-2.085v2.085h.5V7.08h-.5zm0-1.778v1.778h.5V5.301h-.5zm0-.258V5.3h.5v-.26l-.5.002zm0 0h.5-.5zm0 0h.5-.5zm0-.518v.518l.5-.001v-.514l-.5-.003zm.008-.187a2.425 2.425 0 00-.008.189h.5c0-.05.002-.1.006-.15l-.498-.04zm.106-.408a2.488 2.488 0 00-.103.381l.492.092c.02-.104.046-.205.082-.304l-.47-.169zm.208-.361c-.075.107-.14.22-.197.336l.45.219c.045-.094.098-.184.157-.269l-.41-.286zm.271-.275a2.48 2.48 0 00-.255.254l.378.328c.063-.073.13-.141.204-.204l-.327-.378zm.357-.214a2.47 2.47 0 00-.336.198l.285.41a1.97 1.97 0 01.269-.157l-.218-.45zm.402-.112a2.489 2.489 0 00-.377.102l.168.47a1.99 1.99 0 01.302-.08l-.093-.492zm.394-.012c-.114 0-.24 0-.366.008l.036.499c.105-.008.212-.008.33-.007v-.5zm.052 0h-.052v.5h.052v-.5zm.756 0h-.756v.5h.756v-.5zm1.847 0H4.012v.5H5.86v-.5zm.438 0h-.438v.5h.438v-.5zm.427-.177a.631.631 0 01-.427.177v.5c.285 0 .578-.122.78-.323l-.353-.354zm.177-.415a.623.623 0 01-.177.415l.353.354c.19-.19.336-.497.324-.79l-.5.02zm-.17-.428c.103.094.162.249.17.429l.5-.023c-.012-.26-.099-.562-.332-.775l-.337.369zm-.434-.185c.157 0 .305.065.434.184l.339-.368a1.137 1.137 0 00-.773-.316v.5zm-1.08 0h1.08v-.5h-1.08v.5zm-1.747 0h1.747v-.5H3.47v.5zm-.425 0h.425v-.5h-.425v.5zm-1.292.313c.41-.203.84-.313 1.292-.313v-.5c-.536 0-1.04.132-1.513.364l.221.449zm-.617.433a2.79 2.79 0 01.617-.433l-.22-.449a3.285 3.285 0 00-.731.51l.334.372zm-.471.572c.133-.21.293-.41.472-.573L.8 2.126c-.22.198-.407.436-.559.676l.423.267zM.251 4.527c.002-.51.143-1.032.414-1.457l-.423-.268a3.278 3.278 0 00-.491 1.722l.5.003zm0 .395v-.395l-.5-.004v.4l.5-.001zm0 0l-.5.001h.5zm0 .201v-.2h-.5v.2h.5zm0 1.466V5.123h-.5V6.59h.5zm0 1.844V6.589h-.5v1.844h.5zm0 1.73v-1.73h-.5v1.73h.5zm0 1.126v-1.126h-.5v1.126h.5zm0 .185v-.185h-.5v.185h.5zm.37 1.386a2.81 2.81 0 01-.37-1.387l-.5.002c.001.57.152 1.14.437 1.635l.434-.25zm2.414 1.39a2.818 2.818 0 01-2.413-1.39l-.434.25a3.318 3.318 0 002.845 1.64l.002-.5zm.44 0h-.44l-.003.5h.444l-.001-.5zm.221 0h-.221l.001.5h.22v-.5zm1.504 0H3.696v.5H5.2v-.5zm1.854 0H5.2v.5h1.854v-.5zm1.713 0H7.054v.5h1.713v-.5zm1.081 0h-1.08v.5h1.08v-.5zm1.645-.436c-.478.316-1.048.435-1.645.435v.5c.66 0 1.336-.13 1.921-.519l-.276-.416zm.993-1.1c-.207.443-.57.82-.993 1.1l.276.417c.48-.318.915-.761 1.17-1.306l-.453-.212zm.241-.717c-.037.24-.128.472-.242.717l.454.21c.12-.258.234-.54.282-.85l-.494-.077zm.053-.54c0 .174-.023.35-.053.54l.494.076a3.99 3.99 0 00.059-.616h-.5zm0-1.264v1.264h.5v-1.264h-.5zm0-1.678v1.678h.5V8.515h-.5zm0-.297v.297h.5v-.297h-.5zm-.178-.425a.627.627 0 01.178.425h.5c0-.285-.122-.578-.324-.779l-.354.354zm-.417-.177c.132-.005.31.07.417.177l.354-.354a1.123 1.123 0 00-.79-.323l.02.5zm-.43.17c.095-.103.25-.162.431-.17l-.022-.5c-.26.012-.563.098-.777.331l.369.338zm-.184.43c0-.156.065-.302.183-.43l-.365-.34a1.123 1.123 0 00-.318.77h.5z"></path></g><defs><clipPath id="axclip0_2259_12008"><path fill="#fff" transform="translate(0 .5)" d="M0 0h15v15H0z"></path></clipPath></defs></symbol><symbol fill="none" viewBox="0 0 58 58" id="linkedin" xmlns="http://www.w3.org/2000/svg"><rect width="58" height="58" rx="5" fill="url(#aypaint0_linear_5761_4995)"></rect><path d="M24.215 22.655h-4.936v14.847h4.936V22.655zM21.78 15.498c-1.689 0-2.794 1.107-2.794 2.564 0 1.426 1.073 2.567 2.729 2.567h.033c1.721 0 2.792-1.141 2.792-2.567-.032-1.457-1.07-2.564-2.76-2.564zM36.33 22.306c-2.621 0-3.793 1.444-4.449 2.454v.048h-.032l.032-.048v-2.105h-4.936c.066 1.394 0 14.848 0 14.848h4.936V29.21c0-.445.034-.886.164-1.204.358-.887 1.17-1.805 2.533-1.805 1.786 0 2.5 1.362 2.5 3.357v7.944h4.936v-8.514c0-4.56-2.435-6.683-5.684-6.683z" fill="#fff"></path><defs><linearGradient id="aypaint0_linear_5761_4995" x1="0" y1="0" x2="61.047" y2="54.592" gradientUnits="userSpaceOnUse"><stop stop-color="#009CFF"></stop><stop offset="1" stop-color="#9536E5"></stop></linearGradient></defs></symbol><symbol fill="currentColor" viewBox="0 0 368.553 368.553" id="location" xmlns="http://www.w3.org/2000/svg"><path d="M184.277 0c-71.683 0-130 58.317-130 130 0 87.26 119.188 229.855 124.263 235.883a7.498 7.498 0 005.705 2.67h.032a7.5 7.5 0 005.696-2.621c5.075-5.926 124.304-146.165 124.304-235.932-.001-71.683-58.317-130-130-130zm.045 349.251C160.385 319.48 69.277 201.453 69.277 130c0-63.411 51.589-115 115-115s115 51.589 115 115c-.001 73.49-90.95 189.829-114.955 219.251z"></path><path d="M184.277 72.293c-30.476 0-55.269 24.793-55.269 55.269s24.793 55.269 55.269 55.269 55.269-24.793 55.269-55.269-24.793-55.269-55.269-55.269zm0 95.537c-22.204 0-40.269-18.064-40.269-40.269s18.064-40.269 40.269-40.269 40.269 18.064 40.269 40.269-18.066 40.269-40.269 40.269z"></path></symbol><symbol viewBox="0 0 19.584 19.584" id="mail" xmlns="http://www.w3.org/2000/svg"><path data-name="Path 6" d="M17.964 6.448a1.607 1.607 0 00-.769-1.37L9.792.806l-7.4 4.272a1.614 1.614 0 00-.78 1.37v8.058a1.624 1.624 0 001.636 1.612h13.088a1.624 1.624 0 001.636-1.612l-.008-8.06zm-8.172 4.03L3.035 6.315l6.757-3.9 6.757 3.9z" fill="currentColor"></path><path data-name="Path 7" d="M0 0h19.584v19.584H0z" fill="none"></path></symbol><symbol fill="none" viewBox="0 0 43 43" id="massonry" xmlns="http://www.w3.org/2000/svg"><path d="M0 0v15.357h19.964V0H0zm23.036 0v24.571H43V0H23.036zM0 18.429V43h19.964V18.429H0zm23.036 9.214V43H43V27.643H23.036z" fill="#fff"></path></symbol><symbol viewBox="0 0 17 18" id="more-plus" xmlns="http://www.w3.org/2000/svg"><path fill-rule="evenodd" clip-rule="evenodd" d="M8.48.896C13.2.896 17 4.695 17 9.376a8.5 8.5 0 01-8.52 8.519c-4.68 0-8.48-3.8-8.48-8.519C0 4.695 3.8.896 8.48.896zm0 1.765c.692 0 1.267.576 1.267 1.266V8.11h4.183c.73 0 1.305.576 1.305 1.266 0 .691-.576 1.267-1.305 1.267H9.747v4.182c0 .73-.575 1.305-1.266 1.305-.69 0-1.266-.576-1.266-1.305v-4.182H3.032c-.691 0-1.267-.576-1.267-1.267 0-.69.576-1.266 1.267-1.266h4.183V3.927c0-.69.575-1.266 1.266-1.266z"></path></symbol><symbol fill="none" viewBox="0 0 25 31" id="mouse-arrow" xmlns="http://www.w3.org/2000/svg"><path d="M23.905 25.435c.328-.335.416-.836.223-1.263L13.465.718a1.137 1.137 0 00-2.066.04L.882 24.238a1.136 1.136 0 001.49 1.509l6.72-2.911.018 6.315a1.136 1.136 0 001.142 1.134l4.545-.013a1.136 1.136 0 001.134-1.142l-.02-6.31 6.735 2.867c.432.184.932.084 1.259-.252zm-8.694-5.388a1.136 1.136 0 00-1.583 1.047l.021 6.901-2.276.008-.021-6.901a1.137 1.137 0 00-.508-.938l-.166-.074a1.137 1.137 0 00-.919-.007l-5.607 2.414 8.292-18.513 8.401 18.468-5.634-2.405z" fill="#1B2C5C"></path></symbol><symbol viewBox="0 0 19.586 19.586" id="phone" xmlns="http://www.w3.org/2000/svg"><path data-name="Path 2" d="M0 0h19.586v19.586H0z" fill="none"></path><path data-name="Path 3" d="M5.361 8.8a12.418 12.418 0 005.434 5.43l1.814-1.818a.827.827 0 01.837-.2 9.387 9.387 0 002.944.47.822.822 0 01.825.825v2.886a.822.822 0 01-.825.825A14.017 14.017 0 012.372 3.197a.824.824 0 01.825-.825h2.886a.822.822 0 01.825.825 9.387 9.387 0 00.47 2.944.827.827 0 01-.2.837z" fill="currentColor"></path></symbol><symbol fill="none" viewBox="0 0 24 24" id="phone-colored" xmlns="http://www.w3.org/2000/svg"><path d="M22.442 24c.449 0 .82-.153 1.116-.46.294-.307.442-.684.442-1.133v-3.894c0-.4-.118-.743-.354-1.026a1.524 1.524 0 00-.92-.531l-3.434-.779a1.68 1.68 0 00-.938.053 1.98 1.98 0 00-.796.549l-3.186 3.327a25.753 25.753 0 01-5.717-4.23c-1.664-1.64-3.168-3.593-4.513-5.858L7.469 6.76c.212-.189.354-.425.425-.708.07-.283.082-.602.035-.956L7.08 1.31C6.986.909 6.81.59 6.55.354A1.369 1.369 0 005.593 0H1.558C1.109 0 .738.147.442.442.147.737 0 1.11 0 1.558 0 4.2.673 6.85 2.018 9.504a28.093 28.093 0 005.239 7.204 28.325 28.325 0 007.22 5.257C17.146 23.322 19.8 24 22.443 24zM6.23 5.735L3.327 8.566C2.737 7.221 2.295 5.988 2 4.867c-.295-1.12-.43-2.141-.407-3.062 0-.07.018-.124.053-.159a.17.17 0 01.124-.053h3.504c.071 0 .13.018.177.053.048.035.083.1.107.195l.778 3.575a.82.82 0 01-.017.16.308.308 0 01-.089.159zm15.965 16.672c-.944-.047-1.989-.2-3.133-.46a15.3 15.3 0 01-3.204-1.097l2.832-2.974.142-.07a.15.15 0 01.142 0l3.22.636c.072.024.125.06.16.107a.287.287 0 01.053.177v3.469c0 .07-.018.124-.053.159s-.088.053-.16.053z" fill="url(#bfpaint0_linear_3003_46970)"></path><defs><linearGradient id="bfpaint0_linear_3003_46970" x1="5.08" y1="-2.299" x2="30.146" y2="14.353" gradientUnits="userSpaceOnUse"><stop stop-color="#03D7FF"></stop><stop offset="1" stop-color="#01A5FF"></stop></linearGradient></defs></symbol><symbol fill="none" viewBox="0 0 24 24" id="phone2" xmlns="http://www.w3.org/2000/svg"><path d="M22.442 24c.449 0 .82-.153 1.116-.46.294-.307.442-.684.442-1.133v-3.894c0-.4-.118-.743-.354-1.026a1.524 1.524 0 00-.92-.531l-3.434-.779a1.68 1.68 0 00-.938.053 1.98 1.98 0 00-.796.549l-3.186 3.327a25.753 25.753 0 01-5.717-4.23c-1.664-1.64-3.168-3.593-4.513-5.858L7.469 6.76c.212-.189.354-.425.425-.708.07-.283.082-.602.035-.956L7.08 1.31C6.986.909 6.81.59 6.55.354A1.369 1.369 0 005.593 0H1.558C1.109 0 .738.147.442.442.147.737 0 1.11 0 1.558 0 4.2.673 6.85 2.018 9.504a28.093 28.093 0 005.239 7.204 28.325 28.325 0 007.22 5.257C17.146 23.322 19.8 24 22.443 24zM6.23 5.735L3.327 8.566C2.737 7.221 2.295 5.988 2 4.867c-.295-1.12-.43-2.141-.407-3.062 0-.07.018-.124.053-.159a.17.17 0 01.124-.053h3.504c.071 0 .13.018.177.053.048.035.083.1.107.195l.778 3.575a.82.82 0 01-.017.16.308.308 0 01-.089.159zm15.965 16.672c-.944-.047-1.989-.2-3.133-.46a15.3 15.3 0 01-3.204-1.097l2.832-2.974.142-.07a.15.15 0 01.142 0l3.22.636c.072.024.125.06.16.107a.287.287 0 01.053.177v3.469c0 .07-.018.124-.053.159s-.088.053-.16.053z" fill="url(#bgpaint0_linear_4472_15975)"></path><defs><linearGradient id="bgpaint0_linear_4472_15975" x1="5.08" y1="-2.299" x2="30.146" y2="14.353" gradientUnits="userSpaceOnUse"><stop stop-color="#03D7FF"></stop><stop offset="1" stop-color="#01A5FF"></stop></linearGradient></defs></symbol><symbol fill="none" viewBox="0 0 12 12" id="plus" xmlns="http://www.w3.org/2000/svg"><path fill-rule="evenodd" clip-rule="evenodd" d="M4.656 7.071v4.327h2V7.07h4.438v-2H6.656V.705h-2v4.366H.094v2h4.562z" fill="#fff"></path></symbol><symbol viewBox="0 0 19.582 19.582" id="search" xmlns="http://www.w3.org/2000/svg"><path data-name="Path 8" d="M12.655 11.428h-.65l-.225-.225a5.277 5.277 0 10-.576.581l.225.225v.646l4.088 4.08 1.217-1.218-4.08-4.088zm-4.906 0a3.68 3.68 0 113.68-3.68 3.68 3.68 0 01-3.68 3.68z"></path><path data-name="Path 9" d="M0 0h19.582v19.582H0z" fill="none"></path></symbol><symbol fill="none" viewBox="0 0 15 14" id="social-linkedin" xmlns="http://www.w3.org/2000/svg"><path d="M3.328 4.62H.324v9.037h3.004V4.62zM1.847.264c-1.028 0-1.7.674-1.7 1.56 0 .868.652 1.563 1.66 1.563h.02c1.048 0 1.7-.694 1.7-1.562C3.507.938 2.875.264 1.847.264zm8.855 4.144c-1.595 0-2.309.878-2.708 1.493v.03h-.019l.02-.03v-1.28H4.99c.04.847 0 9.036 0 9.036h3.005V8.61c0-.27.02-.54.1-.732.217-.54.71-1.1 1.54-1.1 1.088 0 1.523.83 1.523 2.044v4.835h3.004V8.475c0-2.776-1.482-4.067-3.46-4.067z" fill="currentColor"></path></symbol><symbol fill="none" viewBox="0 0 168 30" id="stars" xmlns="http://www.w3.org/2000/svg"><path d="M10.456 18.842l.143-.37-.329-.224-8.112-5.506H12.5l.114-.341 3.368-10.057 2.988 10.04.106.358H29.43l-8.112 5.506-.306.208.109.354 2.997 9.697-8.245-5.97-.287-.207-.291.201-8.551 5.922 3.713-9.61zm34.074 0l.143-.37-.328-.224-8.113-5.506h10.341l.115-.341 3.367-10.057 2.988 10.04.106.358h10.354l-8.112 5.506-.306.208.11.354 2.996 9.697-8.245-5.97-.287-.207-.29.201-8.552 5.922 3.713-9.61zm34.074 0l.144-.37-.33-.224-8.111-5.506h10.34l.115-.341 3.367-10.057 2.988 10.04.106.358h10.354l-8.112 5.506-.306.208.11.354 2.996 9.697-8.245-5.97-.287-.207-.29.201-8.552 5.922 3.713-9.61zm34.075 0l.143-.37-.329-.224-8.112-5.506h10.341l.114-.341 3.367-10.057 2.988 10.04.107.358h10.354l-8.113 5.506-.306.208.11.354 2.997 9.697-8.246-5.97-.286-.207-.291.201-8.551 5.922 3.713-9.61zm34.074 0l.143-.37-.329-.224-8.112-5.506h10.341l.114-.341 3.367-10.057 2.989 10.04.106.358h10.354l-8.112 5.506-.307.208.11.354 2.997 9.697-8.245-5.97-.287-.207-.291.201-8.551 5.922 3.713-9.61z" fill="#ECC80D" stroke="#D8B400"></path></symbol><symbol fill="none" viewBox="0 0 47 30" id="tab-icon-B2B" xmlns="http://www.w3.org/2000/svg"><path d="M41.3 17.6l5.7-4.4L37 0l-5.7 4.4.2.2H20.3c-.8 0-2.6.2-3.6 1.6L15 5.4l.7-1L10 0 0 13.2l5.7 4.4 1-1.5 1.4 1-.2.3a2.8 2.8 0 00.6 3.9 2.7 2.7 0 002.1.4c-.2 1 .2 2.2 1 2.9a2.7 2.7 0 002.5.4v.7a2.7 2.7 0 004.5 1.7 2.7 2.7 0 002.7 2.2c.5 0 1-.2 1.5-.5l.5.4a2.8 2.8 0 004-.6c.3-.6.4-1.2.4-1.8.6.4 1.1.6 1.7.6.9 0 1.7-.4 2.3-1.2.4-.6.5-1.3.4-2 .4.2.7.2 1 .2a2.7 2.7 0 002.7-3.2l.8.1a2.7 2.7 0 002.7-3.2c0-.6-.3-1.1-.8-1.5l1.5-1 1.3 1.7zM36.8 1.4L45.6 13l-4.1 3.2-8.8-11.6 4-3.2zM5.5 16.2L1.4 13l8.8-11.6 4.1 3.1-8.8 11.7zm3.6 4.3c-.4-.3-.7-.7-.7-1.2-.1-.5 0-1 .3-1.4l1-1.2c.3-.5.8-.8 1.4-.8a1.7 1.7 0 011.7 1.5c0 .5 0 1-.3 1.4l-.1.1-.9 1.3c-.6.7-1.7.8-2.4.3zm3.2 3.3c-.8-.6-1-1.7-.4-2.6l.4-.5 1-1.2 1.2-1.8c.3-.4.9-.7 1.5-.7.4 0 .7 0 1 .3.8.6 1 1.7.4 2.5l-.7 1-2 2.6c-.5.7-1.7 1-2.4.4zm3.4 3c-.3-.4-.6-.8-.6-1.3-.1-.4 0-1 .3-1.3l2.2-3 .6-.8 1.1-1.6c.4-.5 1-.8 1.5-.8a1.7 1.7 0 011.8 1.6c0 .4-.1 1-.4 1.3l-1.4 1.9-1.7 2.4-.8 1.1c-.6.8-1.8 1-2.6.4zm4.5 1.5c-.7-.6-.9-1.7-.3-2.5l1.7-2.4c.4-.4.9-.7 1.4-.7.4 0 .8.1 1 .3.8.6 1 1.8.4 2.6l-1.7 2.3c-.5.7-1.7 1-2.5.4zm6.2 0c-.3.4-.7.6-1.1.7-.5 0-1 0-1.4-.3l-.3-.3 1.6-2.2c.1-.2.3-.4.3-.7l.8.6c.5.6.6 1.5.1 2.2zm11.7-8.4c-.6.8-1.7 1-2.6.4L32.3 18l-1.1-.9-1.4-1-.6.9 2.6 1.8 2.3 1.7c.8.6 1 1.7.5 2.5-.6.8-1.7 1-2.5.4l-2.7-1.9-2.2-1.6-.6.8 3.8 2.7c.8.6 1 1.8.5 2.6-.6.8-1.7 1-2.6.3l-1.3-1a3 3 0 00-.5-.3l-.8-.6c0-.8-.4-1.6-1-2.2-.6-.3-1.2-.5-1.9-.4l.2-.3a2.8 2.8 0 00-.6-4c-1.1-.8-2.9-.5-3.8.6-.1-.6-.5-1.2-1-1.6-1.2-.8-3-.6-3.9.6-.1-.7-.5-1.2-1-1.6-1.2-.9-3-.6-3.9.6l-.1.2-1.3-1 7-9.1L16 7l-1 1.4a2.8 2.8 0 00.6 4c.6.4 1.3.5 2 .4.8 0 1.4-.5 1.9-1.1l1.5-2 2.5-.1c.3 2 2.2 3.7 4.1 3.7H32l5.6 4c.4.4.7.8.8 1.3 0 .4 0 1-.3 1.3zm-.4-3.6l-5.4-4h-4.6c-1.5 0-3-1.6-3.2-3.2v-.5h-4l-1.7 2.5c-.3.4-.7.7-1.2.7a1.7 1.7 0 01-2-1.4c0-.5 0-1 .3-1.4l1.6-2.2c.7-1.1 2.3-1.2 2.8-1.2h12l7 9.4-1.6 1.3z" fill="currentColor"></path></symbol><symbol fill="none" viewBox="0 0 35 30" id="tab-icon-B2C" xmlns="http://www.w3.org/2000/svg"><path d="M3.8 0A3.3 3.3 0 00.5 3.3v23.8A3 3 0 003.4 30h28.2a3 3 0 002.9-3V8a3 3 0 00-2.9-3h-2V.8c0-.4-.5-.8-.9-.8H3.8zm0 1.7h24V5h-24c-1 0-1.6-.7-1.6-1.7 0-.9.7-1.6 1.6-1.6zM2.2 6.2c.4.3 1 .5 1.6.5h27.8c.7 0 1.2.5 1.2 1.2v5h-12a2 2 0 00-2 2.1v5c0 1.1.9 2 2 2h12v5c0 .8-.5 1.3-1.2 1.3H3.4c-.7 0-1.2-.5-1.2-1.2V6.2zm18.6 8.4h12v5.8h-12a.4.4 0 01-.4-.4v-5c0-.2.2-.4.4-.4zm4.2 1.2c-1 0-1.7.8-1.7 1.7a1.7 1.7 0 101.7-1.7z" fill="currentColor"></path></symbol><symbol fill="none" viewBox="0 0 33 30" id="tab-icon-Featured" xmlns="http://www.w3.org/2000/svg"><path d="M26.2 30c.2 0 .5-.1.6-.3.2-.2.2-.4.2-.6l-2.2-10 8-6.9c.2-.2.3-.5.2-.8a.8.8 0 00-.7-.5L21.6 9.7 17.2.4a.8.8 0 00-.7-.4c-.3 0-.6.2-.7.4l-4.4 9.3L.7 11c-.3 0-.6.2-.7.5 0 .3 0 .6.3.8l7.9 6.9L6 29c0 .3 0 .6.3.8h.9l9.3-5 9.3 5 .4.1zM25 27.8l-8.2-4.5a.8.8 0 00-.8 0l-8.2 4.5 2-8.8c0-.3-.1-.6-.3-.8l-7-6 9.4-1c.3 0 .5-.2.6-.4l3.9-8.2 3.9 8.2c.1.2.3.4.6.4l9.4 1-7 6c-.2.2-.3.5-.2.8l1.9 8.8z" fill="currentColor"></path></symbol><symbol fill="none" viewBox="0 0 38 31" id="tab-icon-eCommerce" xmlns="http://www.w3.org/2000/svg"><path fill-rule="evenodd" clip-rule="evenodd" d="M.652 0A.662.662 0 00.19.19.636.636 0 000 .645a.649.649 0 00.652.64h6.116l6.324 18.633c-1.169.388-2.014 1.485-2.014 2.762 0 1.598 1.322 2.908 2.945 2.908h1.414a3.11 3.11 0 00-.625 1.87c0 1.73 1.433 3.153 3.192 3.153 1.759 0 3.191-1.423 3.191-3.154a3.11 3.11 0 00-.624-1.869h5.549a3.11 3.11 0 00-.626 1.87c0 1.73 1.434 3.153 3.193 3.153 1.758 0 3.19-1.423 3.19-3.154a3.11 3.11 0 00-.624-1.869h1.491a.649.649 0 00.653-.64.636.636 0 00-.19-.455.662.662 0 00-.463-.19h-18.72a1.61 1.61 0 01-1.634-1.623c0-.914.72-1.627 1.634-1.627h18.72a.672.672 0 00.188-.03.829.829 0 00.046-.02.685.685 0 00.173-.098.657.657 0 00.131-.14.634.634 0 00.065-.123l.015-.03L37.967 7.04a.633.633 0 00-.09-.577.658.658 0 00-.53-.267H9.818L7.868.442a.5.5 0 00-.015-.028.623.623 0 00-.198-.27.649.649 0 00-.275-.129L7.36.011A.677.677 0 007.244 0H.653zm9.602 7.48h26.184L32.27 19.768H14.42l-.134-.397-4.032-11.89zm7.701 18.108h.097a1.864 1.864 0 011.832 1.869 1.865 1.865 0 01-1.88 1.869 1.866 1.866 0 01-1.883-1.869c0-1.027.813-1.844 1.834-1.869zm10.682 0h.098a1.864 1.864 0 011.832 1.869 1.864 1.864 0 01-1.881 1.869 1.866 1.866 0 01-1.882-1.869c0-1.027.812-1.844 1.833-1.869z" fill="currentColor"></path></symbol></svg>